<svg width="60" height="60" viewBox="0 0 60 60" fill="none" xmlns="http://www.w3.org/2000/svg">
<path d="M17.0006 48L19.1256 50.125C18.7506 50.875 18.2506 51.75 17.6256 52.375C15.8756 54.125 9.37561 56.75 4.75061 58.5C2.75061 59.25 0.87561 57.375 1.62561 55.375C3.37561 50.75 6.12561 44.125 7.75061 42.5C8.37561 41.875 9.12561 41.375 10.0006 41L12.1256 43C11.8756 43.375 11.6256 43.625 11.3756 44C7.00061 49.75 6.75061 51.375 7.75061 52.375C8.00061 52.625 8.37561 52.875 9.00061 52.875C10.3756 52.875 13.8756 50.5 17.0006 48ZM12.1256 33.5C13.5006 29 16.2506 23.875 20.0006 18.75L12.2506 18.5C10.1256 18.5 8.12561 19.25 6.62561 20.75L0.62561 26.75C-0.62439 28 0.000609666 30.125 1.62561 30.625L12.1256 33.5ZM26.3756 47.5L29.2506 58.25C29.7506 60 31.8756 60.5 33.1256 59.25L39.1256 53.25C40.6256 51.75 41.5006 49.75 41.3756 47.625L41.2506 39.375C36.1256 43.25 31.0006 46 26.3756 47.5ZM55.8756 4.66006e-05C52.2506 0.250047 46.5006 1.00005 40.5006 3.62505L56.3756 19.5C59.0006 13.5 59.7506 7.75005 60.0006 4.12505C60.1256 1.75005 58.2506 -0.124953 55.8756 4.66006e-05ZM10.7506 37.875C10.1256 38.5 10.1256 39.5 10.7506 40.125L12.7506 42.125C13.3756 41.25 14.1256 40.375 14.7506 39.75L13.0006 38C12.2506 37.25 11.3756 37.25 10.7506 37.875ZM20.3756 45.25C19.6256 45.875 18.8756 46.5 18.0006 47.25L20.0006 49.25C20.6256 49.875 21.6256 49.875 22.1256 49.25C22.7506 48.625 22.7506 47.625 22.1256 47L20.3756 45.25ZM8.50061 51.5C9.62561 52.625 20.7506 43.5 22.1256 42.125C23.5006 40.75 25.6256 36.625 24.5006 35.5C23.3756 34.375 19.2506 36.5 17.8756 37.875C16.5006 39.25 7.25061 50.375 8.50061 51.5ZM39.2506 4.12505L55.8756 20.75C49.7506 33.75 33.1256 45 23.5006 46.625C23.2506 46.25 23.0006 46.125 21.3756 44.375C22.3756 43.5 23.0006 43 23.0006 43C24.6256 41.375 27.2506 36.5 25.3756 34.625C23.3756 32.625 18.7506 35.25 17.0006 37C16.7506 37.25 16.2506 37.875 15.6256 38.625C14.0006 37 13.8756 36.75 13.5006 36.5C15.0006 26.875 26.2506 10.25 39.2506 4.12505ZM43.2506 16.75C40.5006 14 35.8756 14 33.1256 16.75C30.3756 19.5 30.3756 24.125 33.1256 26.875C35.8756 29.625 40.5006 29.625 43.2506 26.875C46.0006 24.125 46.0006 19.625 43.2506 16.75Z" fill="url(#paint0_linear_18:541)"/>
<defs>
<linearGradient id="paint0_linear_18:541" x1="-0.0363007" y1="-0.00585937" x2="60.6455" y2="59.2905" gradientUnits="userSpaceOnUse">
<stop stop-color="#E65528"/>
<stop offset="1" stop-color="#6F2874"/>
</linearGradient>
</defs>
</svg>
