<svg width="60" height="60" viewBox="0 0 60 60" fill="none" xmlns="http://www.w3.org/2000/svg">
<path d="M59 29.5C60.5 27.7 60.2 25 58.3 23.6L57 22.8C55.6 21.8 55 20.1 55.5 18.5L55.9 17C56.6 14.7 55 12.4 52.8 12.1L51.3 11.9C49.6 11.7 48.3 10.4 48 8.70004L47.7 7.00004C47.3 4.70004 44.9 3.20004 42.7 3.90004L41.2 4.30004C39.6 4.80004 37.9 4.20004 36.9 2.80004L36 1.70004C34.6 -0.199965 31.9 -0.499965 30.1 1.10004L29 2.10004C27.8 3.20004 25.9 3.50004 24.4 2.70004L23 2.00004C20.9 0.900035 18.3 1.80004 17.4 4.00004L17 5.30004C16.4 6.80004 14.8 7.90004 13.1 7.80004L11.5 7.70004C9.19998 7.60004 7.19998 9.60003 7.39998 11.9L7.49998 13.4C7.59998 15.1 6.59998 16.7 5.09998 17.3L3.69998 17.9C1.49998 18.8 0.59998 21.4 1.79998 23.5L2.49998 24.9C3.39998 26.4 3.09998 28.2 1.99998 29.5L0.99998 30.6C-0.50002 32.4 -0.20002 35.1 1.69998 36.5L2.99998 37.2C4.39998 38.2 4.99998 39.9 4.49998 41.5L4.09998 43C3.39998 45.3 4.99998 47.6 7.19998 47.9L8.69998 48.1C10.4 48.3 11.7 49.6 12 51.3L12.2 52.8C12.6 55.1 15 56.6 17.2 55.9L18.7 55.5C20.3 55 22 55.6 23 57L23.9 58.2C25.3 60.1 28 60.4 29.8 58.8L30.9 57.8C32.1 56.7 34 56.4 35.5 57.2L36.9 57.9C39 59 41.6 58.1 42.5 55.9L43.1 54.5C43.7 53 45.3 51.9 47 52L48.5 52.1C50.8 52.2 52.8 50.2 52.6 47.9L52.5 46.4C52.4 44.7 53.4 43.1 54.9 42.5L56.3 41.9C58.5 41 59.4 38.4 58.2 36.3L57.5 34.9C56.6 33.4 56.9 31.6 58 30.3L59 29.5ZM30 48.6C19.7 48.6 11.4 40.3 11.4 30C11.4 19.7 19.7 11.3 30 11.3C40.3 11.3 48.6 19.7 48.6 30C48.6 40.3 40.3 48.6 30 48.6ZM28.7 23.2C28.3 23.6 28.2 24.2 28.2 24.9C28.2 25.6 28.4 26.1 28.8 26.6C29.2 27 29.8 27.5 30.8 27.9C33.1 28.9 34.9 29.9 35.9 30.9C37 31.9 37.6 33.3 37.6 35.2C37.6 36.9 37 38.3 35.9 39.4C35 40.3 33.7 40.9 32.3 41.2V43.7C32.3 44 32.1 44.3 31.7 44.3H29.5C29.2 44.3 28.9 44.1 28.9 43.7V41.2C27 41 25.5 40.3 24.3 39.2C23.1 38.2 22.5 36.7 22.4 34.8C22.4 34.4 22.7 34.1 23.1 34.1L26.7 34C27.1 34 27.4 34.2 27.4 34.6C27.5 35.5 27.8 36.2 28.2 36.6C28.8 37.2 29.4 37.4 30.3 37.4C31 37.4 31.6 37.2 32 36.8C32.4 36.4 32.6 35.8 32.6 35.1C32.6 34.3 32.4 33.7 32 33.2C31.6 32.8 31 32.3 30 31.9C27.5 31 25.8 30 24.7 29C23.6 28 23.1 26.6 23.1 24.7C23.1 23 23.7 21.6 24.8 20.5C25.8 19.5 27.2 18.9 28.9 18.6V16C28.9 15.7 29.1 15.4 29.5 15.4H31.7C32 15.4 32.3 15.6 32.3 16V18.7C33.8 19 35.1 19.7 36.1 20.9C37 21.9 37.5 23.3 37.6 24.8C37.6 25.2 37.3 25.5 36.9 25.5L33.3 25.6C32.9 25.6 32.6 25.4 32.6 25C32.5 24.2 32.4 23.6 32 23.1C31.6 22.5 31 22.3 30.3 22.3C29.5 22.6 29.1 22.8 28.7 23.2Z" fill="url(#paint0_linear_18:499)"/>
<defs>
<linearGradient id="paint0_linear_18:499" x1="0.0474854" y1="0.065918" x2="60.546" y2="59.2272" gradientUnits="userSpaceOnUse">
<stop stop-color="#E65528"/>
<stop offset="1" stop-color="#6F2874"/>
</linearGradient>
</defs>
</svg>
