<svg width="59" height="60" viewBox="0 0 59 60" fill="none" xmlns="http://www.w3.org/2000/svg">
<path d="M58.5 23.6C56.4 10.3 45.1 0.4 31.7 0C31.1 0 30.4 0.2 30 0.6C29.5 1 29.3 1.6 29.2 2.3V2.5L30.7 25.2C30.8 26.7 32.1 27.9 33.6 27.8L56.3 26.3C56.9 26.3 57.5 26 58 25.5C58.4 25 58.6 24.4 58.6 23.7V23.6H58.5Z" fill="url(#paint0_linear_18:510)"/>
<path d="M20.7 8.5998C22.1 8.2998 23.6 8.9998 24.2 10.3998C24.4 10.6998 24.5 11.0998 24.5 11.3998C24.8 15.7998 25.5 25.3998 25.8 30.5998C25.9 31.4998 26.3 32.3998 27 32.9998C27.7 33.5998 28.6 33.8998 29.6 33.8998L48.7 32.6998C49.6 32.5998 50.4 32.9998 51 33.4998C51.6 34.0998 52 34.8998 52 35.7998C51.2 47.2998 43 56.8998 31.7 59.3998C20.4 61.8998 8.8 56.5998 3.3 46.4998C1.6 43.5998 0.6 40.3998 0.2 36.9998C4.47035e-08 36.0998 0 34.9998 0 33.9998C0 21.6998 8.7 11.0998 20.7 8.5998Z" fill="url(#paint1_linear_18:510)"/>
<defs>
<linearGradient id="paint0_linear_18:510" x1="29.2" y1="0" x2="57.339" y2="29.0282" gradientUnits="userSpaceOnUse">
<stop stop-color="#E65528"/>
<stop offset="1" stop-color="#6F2874"/>
</linearGradient>
<linearGradient id="paint1_linear_18:510" x1="0" y1="8.53125" x2="52.119" y2="59.893" gradientUnits="userSpaceOnUse">
<stop stop-color="#E65528"/>
<stop offset="1" stop-color="#6F2874"/>
</linearGradient>
</defs>
</svg>
