<svg width="36" height="36" viewBox="0 0 36 36" fill="none" xmlns="http://www.w3.org/2000/svg">
<circle cx="18" cy="18" r="17.5" stroke="#5B5B5B"/>
<g clip-path="url(#clip0_18:351)">
<path d="M13.8 26V15.2H10.2V26H13.8ZM12 13.7C13.3 13.7 14 12.9 14 11.8C14 10.8 13.3 10 12 10C10.8 10 10 10.8 10 11.9C10 12.9 10.8 13.7 12 13.7ZM15.8 26H19.4V20C19.4 19.7 19.4 19.4 19.5 19.1C19.8 18.5 20.3 17.8 21.3 17.8C22.6 17.8 23.1 18.8 23.1 20.2V26H26.7V19.8C26.7 16.5 25 15 22.6 15C20.7 15 19.8 16 19.4 16.8V15.2H15.8C15.8 16.2 15.8 26 15.8 26Z" fill="#5B5B5B"/>
</g>
<defs>
<clipPath id="clip0_18:351">
<rect width="16.7" height="16" fill="white" transform="translate(10 10)"/>
</clipPath>
</defs>
</svg>
