<svg width="175" height="60" viewBox="0 0 175 60" fill="none" xmlns="http://www.w3.org/2000/svg">
<g clip-path="url(#clip0_26:50)">
<path d="M29.5826 59.1651C45.9205 59.1651 59.1651 45.9205 59.1651 29.5826C59.1651 13.2446 45.9205 0 29.5826 0C13.2446 0 0 13.2446 0 29.5826C0 45.9205 13.2446 59.1651 29.5826 59.1651Z" fill="url(#paint0_linear_26:50)"/>
<path d="M48.334 25.9496L27.3712 55.3065L22.1813 41.8579L25.3855 41.9255L28.161 49.1012L34.795 39.8044H27.2584L25.6337 36.8259H36.9161L42.5574 28.9282H18.7063L20.7823 25.9496H48.334Z" fill="white"/>
<path d="M40.4363 30.2369L38.3829 33.2155H10.8311L31.7939 3.85858L36.9838 17.2847L33.7796 17.2396L31.0041 10.0639L24.3475 19.3606H31.9067L33.5314 22.3392H22.249L16.6078 30.2369H40.4363Z" fill="white"/>
<path d="M23.8511 41.2712C22.6777 41.2712 21.7525 40.3234 21.7525 39.1726C21.7525 37.9993 22.7003 37.0741 23.8511 37.0741C25.0245 37.0741 25.9496 38.0218 25.9496 39.1726C25.9496 40.346 25.0019 41.2712 23.8511 41.2712ZM23.8511 38.3377C23.3998 38.3377 23.0162 38.6988 23.0162 39.1726C23.0162 39.6239 23.3772 40.0075 23.8511 40.0075C24.3024 40.0075 24.686 39.6465 24.686 39.1726C24.686 38.6988 24.3024 38.3377 23.8511 38.3377Z" fill="white"/>
<path d="M35.1335 21.8654C33.9601 21.8654 33.035 20.9176 33.035 19.7668C33.035 18.5935 33.9827 17.6683 35.1335 17.6683C36.3069 17.6683 37.232 18.616 37.232 19.7668C37.232 20.9402 36.2843 21.8654 35.1335 21.8654ZM35.1335 18.9319C34.6822 18.9319 34.2986 19.293 34.2986 19.7668C34.2986 20.2181 34.6596 20.6017 35.1335 20.6017C35.6074 20.6017 35.9684 20.2407 35.9684 19.7668C35.9684 19.293 35.5848 18.9319 35.1335 18.9319Z" fill="white"/>
<path d="M80.5115 48.0406H158.27C159.421 48.0406 160.346 48.9658 160.346 50.1166V51.8766C160.346 53.0275 159.421 53.9526 158.27 53.9526H80.5115C79.3607 53.9526 78.4355 53.0275 78.4355 51.8766V50.1166C78.4355 48.9658 79.3832 48.0406 80.5115 48.0406Z" fill="url(#paint1_linear_26:50)"/>
<path d="M82.3844 49.733V49.6653C82.3844 49.6201 82.3844 49.5976 82.4069 49.575C82.4295 49.5524 82.4521 49.5525 82.4746 49.5525C82.4972 49.5525 82.5197 49.5524 82.5423 49.575C82.5649 49.5976 82.5649 49.6201 82.5649 49.6653V50.1391C82.5649 50.1843 82.5649 50.2068 82.5423 50.2294C82.5197 50.252 82.4972 50.252 82.4746 50.252C82.4521 50.252 82.4295 50.252 82.4069 50.2294C82.3844 50.2068 82.3844 50.1843 82.3844 50.1391C82.3844 50.0263 82.3167 49.9135 82.2038 49.8007C82.091 49.7104 81.9331 49.6427 81.73 49.6427C81.5269 49.6427 81.3689 49.6878 81.2561 49.8007C81.1433 49.9135 81.0756 50.0263 81.0756 50.1617C81.0756 50.2294 81.0982 50.2971 81.1207 50.3648C81.1433 50.4325 81.1884 50.4776 81.2561 50.5002C81.3238 50.5227 81.3689 50.5679 81.4366 50.5904C81.5043 50.613 81.6172 50.6356 81.7751 50.6581C82.0233 50.7033 82.2038 50.7484 82.2941 50.7935C82.4295 50.8612 82.5198 50.9289 82.5874 51.0192C82.6551 51.1094 82.6777 51.2448 82.6777 51.3802C82.6777 51.5833 82.5874 51.7638 82.4295 51.9218C82.2715 52.0797 82.0459 52.1474 81.7525 52.1474C81.4366 52.1474 81.1659 52.0572 80.9853 51.8541V51.9669C80.9853 52.012 80.9853 52.0346 80.9628 52.0571C80.9402 52.0797 80.9176 52.0797 80.8951 52.0797C80.8725 52.0797 80.8499 52.0797 80.8274 52.0571C80.8048 52.0346 80.8048 52.012 80.8048 51.9669V51.4479C80.8048 51.4028 80.8048 51.3802 80.8274 51.3576C80.8499 51.3351 80.8725 51.3351 80.8951 51.3351C80.9176 51.3351 80.9402 51.3351 80.9628 51.3576C80.9853 51.3802 80.9853 51.4028 80.9853 51.4479C80.9853 51.5833 81.0756 51.6961 81.211 51.8089C81.3464 51.9218 81.5269 51.9669 81.7525 51.9669C81.9782 51.9669 82.1587 51.8992 82.2941 51.7864C82.4295 51.6735 82.4972 51.5382 82.4972 51.3802C82.4972 51.2899 82.4746 51.1997 82.4295 51.132C82.3844 51.0643 82.2941 50.9966 82.2038 50.9515C82.1361 50.9289 81.9782 50.8838 81.7751 50.8386C81.4592 50.7935 81.2561 50.7033 81.1207 50.613C80.9853 50.5002 80.9176 50.3648 80.9176 50.1617C80.9176 49.9586 80.9853 49.8007 81.1433 49.6653C81.3012 49.5299 81.5043 49.4622 81.7525 49.4622C81.9782 49.4848 82.1813 49.575 82.3844 49.733Z" fill="white"/>
<path d="M85.4081 51.1997H83.5352C83.5577 51.4479 83.6706 51.6284 83.8285 51.7638C83.9865 51.8992 84.2121 51.9895 84.4603 51.9895C84.5957 51.9895 84.7311 51.9669 84.8891 51.9218C85.047 51.8767 85.1598 51.809 85.2501 51.7413C85.2727 51.7187 85.2952 51.7187 85.3178 51.7187C85.3404 51.7187 85.3629 51.7187 85.3855 51.7413C85.408 51.7638 85.4081 51.7864 85.4081 51.809C85.4081 51.8315 85.3855 51.8541 85.3629 51.8767C85.2952 51.9443 85.1598 52.012 84.9793 52.0797C84.7988 52.1474 84.6183 52.17 84.4378 52.17C84.1219 52.17 83.8511 52.0572 83.648 51.8541C83.4449 51.651 83.3321 51.4028 83.3321 51.1094C83.3321 50.8387 83.4223 50.613 83.6254 50.4325C83.8285 50.252 84.0767 50.1392 84.3701 50.1392C84.6634 50.1392 84.9116 50.2294 85.1147 50.4325C85.3178 50.6356 85.4081 50.9064 85.4081 51.1997ZM85.2275 51.0192C85.1824 50.8161 85.0921 50.6582 84.9342 50.5228C84.7762 50.3874 84.5957 50.3422 84.3701 50.3422C84.1444 50.3422 83.9639 50.4099 83.8059 50.5228C83.648 50.6582 83.5577 50.8161 83.5126 51.0192H85.2275Z" fill="white"/>
<path d="M88.0933 51.1997H86.2204C86.243 51.4479 86.3558 51.6284 86.5137 51.7638C86.6717 51.8992 86.8973 51.9895 87.1455 51.9895C87.2809 51.9895 87.4163 51.9669 87.5743 51.9218C87.7322 51.8767 87.8451 51.809 87.9353 51.7413C87.9579 51.7187 87.9804 51.7187 88.003 51.7187C88.0256 51.7187 88.0481 51.7187 88.0707 51.7413C88.0933 51.7638 88.0933 51.7864 88.0933 51.809C88.0933 51.8315 88.0707 51.8541 88.0481 51.8767C87.9804 51.9443 87.8451 52.012 87.6645 52.0797C87.484 52.1474 87.3035 52.17 87.123 52.17C86.8071 52.17 86.5363 52.0572 86.3332 51.8541C86.1301 51.651 86.0173 51.4028 86.0173 51.1094C86.0173 50.8387 86.1076 50.613 86.3106 50.4325C86.5137 50.252 86.7619 50.1392 87.0553 50.1392C87.3486 50.1392 87.5968 50.2294 87.7999 50.4325C88.003 50.6356 88.0933 50.9064 88.0933 51.1997ZM87.9128 51.0192C87.8676 50.8161 87.7774 50.6582 87.6194 50.5228C87.4615 50.3874 87.2809 50.3422 87.0553 50.3422C86.8296 50.3422 86.6491 50.4099 86.4912 50.5228C86.3332 50.6582 86.2429 50.8161 86.1978 51.0192H87.9128Z" fill="white"/>
<path d="M89.4246 51.29V52.1023H88.9959C88.9507 52.1023 88.9282 52.1023 88.9056 52.0797C88.883 52.0572 88.883 52.0346 88.883 52.012C88.883 51.9895 88.883 51.9669 88.9056 51.9443C88.9282 51.9218 88.9507 51.9218 88.9959 51.9218H89.2441V49.5525H88.9959C88.9507 49.5525 88.9282 49.5525 88.9056 49.5299C88.883 49.5073 88.883 49.4848 88.883 49.4622C88.883 49.4396 88.883 49.4171 88.9056 49.3945C88.9282 49.3719 88.9507 49.3719 88.9959 49.3719H89.4246V51.0643L90.2144 50.4099H90.1241C90.079 50.4099 90.0564 50.4099 90.0339 50.3874C90.0113 50.3648 90.0113 50.3422 90.0113 50.3197C90.0113 50.2971 90.0113 50.2745 90.0339 50.252C90.0564 50.2294 90.079 50.2294 90.1241 50.2294H90.7108C90.7559 50.2294 90.7785 50.2294 90.8011 50.252C90.8236 50.2745 90.8236 50.2971 90.8236 50.3197C90.8236 50.3422 90.8236 50.3648 90.8011 50.3874C90.7785 50.4099 90.7559 50.4099 90.7108 50.4099H90.4852L89.7631 51.0192L90.6657 51.9443H90.8688C90.9139 51.9443 90.9365 51.9443 90.959 51.9669C90.9816 51.9895 90.9816 52.012 90.9816 52.0346C90.9816 52.0572 90.9816 52.0797 90.959 52.1023C90.9365 52.1249 90.9139 52.1249 90.8688 52.1249H90.2821C90.2369 52.1249 90.2144 52.1249 90.1918 52.1023C90.1692 52.0797 90.1692 52.0572 90.1692 52.0346C90.1692 52.012 90.1692 51.9895 90.1918 51.9669C90.2144 51.9443 90.2369 51.9443 90.2821 51.9443H90.4175L89.6277 51.132L89.4246 51.29Z" fill="white"/>
<path d="M92.5837 50.2068V51.9218H93.3058C93.3509 51.9218 93.3735 51.9218 93.396 51.9443C93.4186 51.9669 93.4186 51.9895 93.4186 52.012C93.4186 52.0346 93.4186 52.0572 93.396 52.0797C93.3735 52.1023 93.3509 52.1023 93.3058 52.1023H91.6811C91.636 52.1023 91.6134 52.1023 91.5908 52.0797C91.5683 52.0572 91.5683 52.0346 91.5683 52.012C91.5683 51.9895 91.5683 51.9669 91.5908 51.9443C91.6134 51.9218 91.636 51.9218 91.6811 51.9218H92.4032V50.3874H91.8616C91.8165 50.3874 91.7939 50.3874 91.7714 50.3648C91.7488 50.3422 91.7488 50.3197 91.7488 50.2971C91.7488 50.2745 91.7488 50.252 91.7714 50.2294C91.7939 50.2068 91.8165 50.2068 91.8616 50.2068H92.5837ZM92.5837 49.2817V49.7555H92.3129V49.2817H92.5837Z" fill="white"/>
<path d="M94.592 50.2069V50.4776C94.7273 50.3422 94.8402 50.252 94.9304 50.2069C95.0432 50.1617 95.1561 50.1392 95.2914 50.1392C95.4268 50.1392 95.5622 50.1617 95.6751 50.2294C95.7653 50.2746 95.833 50.3422 95.9007 50.4551C95.9684 50.5453 95.991 50.6582 95.991 50.771V51.9218H96.1489C96.194 51.9218 96.2166 51.9218 96.2392 51.9443C96.2617 51.9669 96.2617 51.9895 96.2617 52.012C96.2617 52.0346 96.2617 52.0572 96.2392 52.0797C96.2166 52.1023 96.194 52.1023 96.1489 52.1023H95.6525C95.6074 52.1023 95.5848 52.1023 95.5622 52.0797C95.5397 52.0572 95.5397 52.0346 95.5397 52.012C95.5397 51.9895 95.5397 51.9669 95.5622 51.9443C95.5848 51.9218 95.6074 51.9218 95.6525 51.9218H95.8104V50.7935C95.8104 50.6582 95.7653 50.5453 95.6751 50.4551C95.5848 50.3648 95.4494 50.3197 95.2914 50.3197C95.1786 50.3197 95.0658 50.3422 94.9755 50.3874C94.8853 50.4325 94.7499 50.5679 94.592 50.7484V51.8992H94.795C94.8402 51.8992 94.8627 51.8992 94.8853 51.9218C94.9079 51.9443 94.9079 51.9669 94.9079 51.9895C94.9079 52.012 94.9079 52.0346 94.8853 52.0572C94.8627 52.0797 94.8402 52.0797 94.795 52.0797H94.1858C94.1407 52.0797 94.1181 52.0797 94.0955 52.0572C94.073 52.0346 94.073 52.012 94.073 51.9895C94.073 51.9669 94.073 51.9443 94.0955 51.9218C94.1181 51.8992 94.1407 51.8992 94.1858 51.8992H94.3889V50.3648H94.2309C94.1858 50.3648 94.1632 50.3648 94.1407 50.3422C94.1181 50.3197 94.1181 50.2971 94.1181 50.2746C94.1181 50.252 94.1181 50.2294 94.1407 50.2069C94.1632 50.1843 94.1858 50.1843 94.2309 50.1843H94.592V50.2069Z" fill="white"/>
<path d="M98.4957 50.5453V50.2068H98.9244C98.9695 50.2068 98.9921 50.2068 99.0147 50.2294C99.0372 50.252 99.0372 50.2745 99.0372 50.2971C99.0372 50.3197 99.0372 50.3422 99.0147 50.3648C98.9921 50.3874 98.9695 50.3874 98.9244 50.3874H98.6762V52.2151C98.6762 52.3279 98.6536 52.4408 98.6085 52.5536C98.5634 52.6213 98.5183 52.689 98.428 52.7567C98.3377 52.8244 98.27 52.8695 98.2023 52.9146C98.1346 52.9372 98.0444 52.9597 97.9316 52.9597H97.4126C97.3674 52.9597 97.3449 52.9597 97.3223 52.9372C97.2997 52.9146 97.2997 52.8921 97.2997 52.8695C97.2997 52.8469 97.2997 52.8244 97.3223 52.8018C97.3449 52.7792 97.3674 52.7792 97.4126 52.7792H97.9316C98.0444 52.7792 98.1346 52.7567 98.2249 52.689C98.3152 52.6213 98.3829 52.5536 98.4505 52.4408C98.4731 52.3731 98.4957 52.3054 98.4957 52.2151V51.6736C98.2926 51.9443 98.0444 52.0797 97.7285 52.0797C97.4803 52.0797 97.2546 51.9895 97.0741 51.8089C96.8936 51.6284 96.8033 51.4028 96.8033 51.132C96.8033 50.8612 96.8936 50.6356 97.0741 50.4551C97.2546 50.2745 97.4803 50.1843 97.7285 50.1843C98.0444 50.1391 98.2926 50.2745 98.4957 50.5453ZM98.4957 51.1094C98.4957 50.8838 98.428 50.7033 98.27 50.5679C98.1121 50.4325 97.9541 50.3422 97.7285 50.3422C97.5254 50.3422 97.3449 50.4099 97.2095 50.5679C97.0515 50.7258 96.9838 50.9063 96.9838 51.1094C96.9838 51.3351 97.0515 51.5156 97.2095 51.651C97.3674 51.8089 97.5254 51.8766 97.7285 51.8766C97.9316 51.8766 98.1121 51.8089 98.27 51.651C98.428 51.5156 98.4957 51.3351 98.4957 51.1094Z" fill="white"/>
<path d="M104.159 52.1023H103.934L102.58 49.8007V51.9218H102.918C102.964 51.9218 102.986 51.9218 103.009 51.9443C103.031 51.9669 103.031 51.9895 103.031 52.012C103.031 52.0346 103.031 52.0572 103.009 52.0797C102.986 52.1023 102.964 52.1023 102.918 52.1023H102.241C102.196 52.1023 102.174 52.1023 102.151 52.0797C102.129 52.0572 102.129 52.0346 102.129 52.012C102.129 51.9895 102.129 51.9669 102.151 51.9443C102.174 51.9218 102.196 51.9218 102.241 51.9218H102.399V49.733H102.151C102.106 49.733 102.083 49.733 102.061 49.7104C102.038 49.6878 102.038 49.6653 102.038 49.6427C102.038 49.6202 102.038 49.5976 102.061 49.575C102.083 49.5525 102.106 49.5525 102.151 49.5525H102.625L103.979 51.8541V49.733H103.64C103.595 49.733 103.573 49.733 103.55 49.7104C103.528 49.6878 103.528 49.6653 103.528 49.6427C103.528 49.6202 103.528 49.5976 103.55 49.575C103.573 49.5525 103.595 49.5525 103.64 49.5525H104.317C104.363 49.5525 104.385 49.5525 104.408 49.575C104.43 49.5976 104.43 49.6202 104.43 49.6427C104.43 49.6653 104.43 49.6878 104.408 49.7104C104.385 49.733 104.363 49.733 104.317 49.733H104.159V52.1023Z" fill="white"/>
<path d="M106.958 51.1997H105.085C105.107 51.4479 105.22 51.6284 105.378 51.7638C105.536 51.8992 105.762 51.9895 106.01 51.9895C106.145 51.9895 106.281 51.9669 106.439 51.9218C106.596 51.8767 106.709 51.809 106.8 51.7413C106.822 51.7187 106.845 51.7187 106.867 51.7187C106.89 51.7187 106.912 51.7187 106.935 51.7413C106.958 51.7638 106.958 51.7864 106.958 51.809C106.958 51.8315 106.935 51.8541 106.912 51.8767C106.845 51.9443 106.709 52.012 106.529 52.0797C106.348 52.1474 106.168 52.17 105.987 52.17C105.671 52.17 105.401 52.0572 105.197 51.8541C104.994 51.651 104.882 51.4028 104.882 51.1094C104.882 50.8387 104.972 50.613 105.175 50.4325C105.378 50.252 105.626 50.1392 105.92 50.1392C106.213 50.1392 106.461 50.2294 106.664 50.4325C106.867 50.6356 106.958 50.9064 106.958 51.1997ZM106.777 51.0192C106.732 50.8161 106.642 50.6582 106.484 50.5228C106.326 50.3874 106.145 50.3422 105.92 50.3422C105.694 50.3422 105.513 50.4099 105.355 50.5228C105.197 50.6582 105.107 50.8161 105.062 51.0192H106.777Z" fill="white"/>
<path d="M108.785 51.132L109.62 51.9443C109.665 51.9443 109.71 51.9443 109.733 51.9443C109.756 51.9443 109.756 51.9669 109.778 51.9669C109.778 51.9894 109.801 51.9894 109.801 52.012C109.801 52.0346 109.801 52.0571 109.778 52.0797C109.756 52.1023 109.733 52.1023 109.688 52.1023H109.101C109.056 52.1023 109.033 52.1023 109.011 52.0797C108.988 52.0571 108.988 52.0346 108.988 52.012C108.988 51.9894 108.988 51.9669 109.011 51.9443C109.033 51.9218 109.056 51.9218 109.101 51.9218H109.395L108.672 51.2448L107.95 51.9218H108.266C108.311 51.9218 108.334 51.9218 108.357 51.9443C108.379 51.9669 108.379 51.9894 108.379 52.012C108.379 52.0346 108.379 52.0571 108.357 52.0797C108.334 52.1023 108.311 52.1023 108.266 52.1023H107.657C107.612 52.1023 107.589 52.1023 107.567 52.0797C107.544 52.0571 107.544 52.0346 107.544 52.012C107.544 51.9894 107.544 51.9669 107.567 51.9669C107.567 51.9443 107.589 51.9443 107.612 51.9443C107.634 51.9443 107.657 51.9443 107.725 51.9443L108.56 51.132L107.815 50.4099C107.77 50.4099 107.725 50.4099 107.725 50.4099C107.702 50.4099 107.702 50.3873 107.68 50.3873C107.657 50.3873 107.657 50.3648 107.657 50.3422C107.657 50.3196 107.657 50.2971 107.68 50.2745C107.702 50.252 107.725 50.252 107.77 50.252H108.266C108.311 50.252 108.334 50.252 108.357 50.2745C108.379 50.2971 108.379 50.3196 108.379 50.3422C108.379 50.3648 108.379 50.3873 108.357 50.4099C108.334 50.4325 108.311 50.4325 108.266 50.4325H108.041L108.65 51.0417L109.282 50.4325H109.056C109.011 50.4325 108.988 50.4325 108.966 50.4099C108.943 50.3873 108.943 50.3648 108.943 50.3422C108.943 50.3196 108.943 50.2971 108.966 50.2745C108.988 50.252 109.011 50.252 109.056 50.252H109.552C109.598 50.252 109.62 50.252 109.643 50.2745C109.665 50.2971 109.665 50.3196 109.665 50.3422C109.665 50.3648 109.665 50.3873 109.643 50.3873C109.62 50.3873 109.62 50.4099 109.598 50.4099C109.575 50.4099 109.552 50.4099 109.507 50.4099L108.785 51.132Z" fill="white"/>
<path d="M110.974 50.2068H111.967C112.012 50.2068 112.035 50.2068 112.057 50.2294C112.08 50.252 112.08 50.2745 112.08 50.2971C112.08 50.3197 112.08 50.3422 112.057 50.3648C112.035 50.3873 112.012 50.3873 111.967 50.3873H110.974V51.6058C110.974 51.7187 111.019 51.8089 111.109 51.8766C111.2 51.9443 111.313 51.9894 111.493 51.9894C111.606 51.9894 111.741 51.9669 111.899 51.9443C112.035 51.8992 112.147 51.8541 112.238 51.8089C112.26 51.7864 112.283 51.7864 112.305 51.7864C112.328 51.7864 112.351 51.7864 112.373 51.8089C112.396 51.8315 112.396 51.8541 112.396 51.8766C112.396 51.8992 112.396 51.9218 112.373 51.9443C112.328 51.9895 112.215 52.0346 112.035 52.1023C111.854 52.1474 111.674 52.1925 111.516 52.1925C111.29 52.1925 111.132 52.1474 110.997 52.0346C110.861 51.9443 110.816 51.8089 110.816 51.6284V50.4099H110.478C110.432 50.4099 110.41 50.4099 110.387 50.3873C110.365 50.3648 110.365 50.3422 110.365 50.3197C110.365 50.2971 110.365 50.2745 110.387 50.252C110.41 50.2294 110.432 50.2294 110.478 50.2294H110.816V49.6878C110.816 49.6427 110.816 49.6201 110.839 49.5976C110.861 49.575 110.884 49.575 110.906 49.575C110.929 49.575 110.951 49.575 110.974 49.5976C110.997 49.6201 110.997 49.6427 110.997 49.6878V50.2068H110.974Z" fill="white"/>
<path d="M117.721 51.1546V51.9443C117.586 52.012 117.45 52.0797 117.292 52.1249C117.134 52.17 117.021 52.1926 116.863 52.1926C116.66 52.1926 116.502 52.17 116.344 52.1023C116.187 52.0346 116.074 51.9669 115.961 51.8541C115.848 51.7413 115.78 51.6284 115.713 51.493C115.645 51.3577 115.622 51.1997 115.622 50.9966V50.6581C115.622 50.4551 115.668 50.252 115.78 50.0715C115.893 49.8909 116.029 49.733 116.187 49.6427C116.367 49.5525 116.548 49.4848 116.751 49.4848C117.044 49.4848 117.292 49.575 117.495 49.733C117.495 49.6653 117.495 49.6202 117.495 49.5976C117.495 49.575 117.518 49.575 117.518 49.5525C117.518 49.5299 117.563 49.5299 117.563 49.5299C117.586 49.5299 117.608 49.5299 117.631 49.5525C117.653 49.575 117.653 49.5976 117.653 49.6427V50.0489C117.653 50.094 117.653 50.1166 117.631 50.1392C117.608 50.1617 117.586 50.1617 117.563 50.1617C117.54 50.1617 117.518 50.1617 117.495 50.1392C117.473 50.1166 117.473 50.094 117.473 50.0489C117.473 49.9135 117.382 49.8232 117.225 49.733C117.067 49.6427 116.909 49.6202 116.728 49.6202C116.548 49.6202 116.412 49.6653 116.277 49.733C116.141 49.8007 116.006 49.9586 115.893 50.1617C115.825 50.2971 115.78 50.4551 115.78 50.613V50.9515C115.78 51.2674 115.871 51.493 116.051 51.6736C116.232 51.8541 116.502 51.9443 116.818 51.9443C116.931 51.9443 117.021 51.9218 117.134 51.8992C117.247 51.8766 117.337 51.8315 117.473 51.7864V51.1094H116.841C116.796 51.1094 116.773 51.1094 116.751 51.0869C116.728 51.0643 116.728 51.0417 116.728 51.0192C116.728 50.9966 116.728 50.9741 116.751 50.9515C116.773 50.9289 116.796 50.9289 116.841 50.9289H117.721C117.766 50.9289 117.789 50.9289 117.811 50.9515C117.834 50.9741 117.834 50.9966 117.834 51.0192C117.834 51.0417 117.834 51.0643 117.811 51.0643C117.789 51.0643 117.789 51.0869 117.766 51.0869C117.744 51.0869 117.811 51.1546 117.721 51.1546Z" fill="white"/>
<path d="M120.429 51.1997H118.556C118.578 51.4479 118.691 51.6284 118.849 51.7638C119.007 51.8992 119.233 51.9895 119.481 51.9895C119.616 51.9895 119.752 51.9669 119.91 51.9218C120.068 51.8767 120.181 51.809 120.271 51.7413C120.293 51.7187 120.316 51.7187 120.338 51.7187C120.361 51.7187 120.384 51.7187 120.406 51.7413C120.429 51.7638 120.429 51.7864 120.429 51.809C120.429 51.8315 120.406 51.8541 120.384 51.8767C120.316 51.9443 120.181 52.012 120 52.0797C119.819 52.1474 119.639 52.17 119.458 52.17C119.143 52.17 118.872 52.0572 118.669 51.8541C118.466 51.651 118.353 51.4028 118.353 51.1094C118.353 50.8387 118.443 50.613 118.646 50.4325C118.849 50.252 119.097 50.1392 119.391 50.1392C119.684 50.1392 119.932 50.2294 120.135 50.4325C120.338 50.6356 120.429 50.9064 120.429 51.1997ZM120.226 51.0192C120.181 50.8161 120.09 50.6582 119.932 50.5228C119.774 50.3874 119.594 50.3422 119.368 50.3422C119.143 50.3422 118.962 50.4099 118.804 50.5228C118.646 50.6582 118.556 50.8161 118.511 51.0192H120.226Z" fill="white"/>
<path d="M121.512 50.2069V50.4776C121.647 50.3422 121.76 50.252 121.85 50.2069C121.963 50.1617 122.076 50.1392 122.211 50.1392C122.347 50.1392 122.482 50.1617 122.595 50.2294C122.685 50.2746 122.753 50.3422 122.821 50.4551C122.888 50.5453 122.911 50.6582 122.911 50.771V51.9218H123.069C123.114 51.9218 123.137 51.9218 123.159 51.9443C123.182 51.9669 123.182 51.9895 123.182 52.012C123.182 52.0346 123.182 52.0572 123.159 52.0797C123.137 52.1023 123.114 52.1023 123.069 52.1023H122.572C122.527 52.1023 122.505 52.1023 122.482 52.0797C122.46 52.0572 122.46 52.0346 122.46 52.012C122.46 51.9895 122.46 51.9669 122.482 51.9443C122.505 51.9218 122.527 51.9218 122.572 51.9218H122.73V50.7935C122.73 50.6582 122.685 50.5453 122.595 50.4551C122.505 50.3648 122.369 50.3197 122.211 50.3197C122.099 50.3197 121.986 50.3422 121.895 50.3874C121.805 50.4325 121.67 50.5679 121.512 50.7484V51.8992H121.715C121.76 51.8992 121.783 51.8992 121.805 51.9218C121.828 51.9443 121.828 51.9669 121.828 51.9895C121.828 52.012 121.828 52.0346 121.805 52.0572C121.783 52.0797 121.76 52.0797 121.715 52.0797H121.106C121.061 52.0797 121.038 52.0797 121.015 52.0572C120.993 52.0346 120.993 52.012 120.993 51.9895C120.993 51.9669 120.993 51.9443 121.015 51.9218C121.038 51.8992 121.061 51.8992 121.106 51.8992H121.309V50.3648H121.173C121.128 50.3648 121.106 50.3648 121.083 50.3422C121.061 50.3197 121.061 50.2971 121.061 50.2746C121.061 50.252 121.061 50.2294 121.083 50.2069C121.106 50.1843 121.128 50.1843 121.173 50.1843H121.512V50.2069Z" fill="white"/>
<path d="M125.799 51.1997H123.926C123.949 51.4479 124.062 51.6284 124.22 51.7638C124.378 51.8992 124.603 51.9895 124.851 51.9895C124.987 51.9895 125.122 51.9669 125.28 51.9218C125.438 51.8767 125.551 51.809 125.641 51.7413C125.664 51.7187 125.686 51.7187 125.709 51.7187C125.731 51.7187 125.754 51.7187 125.777 51.7413C125.799 51.7638 125.799 51.7864 125.799 51.809C125.799 51.8315 125.777 51.8541 125.754 51.8767C125.686 51.9443 125.551 52.012 125.37 52.0797C125.19 52.1474 125.009 52.17 124.829 52.17C124.513 52.17 124.242 52.0572 124.039 51.8541C123.836 51.651 123.723 51.4028 123.723 51.1094C123.723 50.8387 123.813 50.613 124.017 50.4325C124.22 50.252 124.468 50.1392 124.761 50.1392C125.055 50.1392 125.303 50.2294 125.506 50.4325C125.709 50.6356 125.799 50.9064 125.799 51.1997ZM125.619 51.0192C125.574 50.8161 125.483 50.6582 125.325 50.5228C125.167 50.3874 124.987 50.3422 124.761 50.3422C124.536 50.3422 124.355 50.4099 124.197 50.5228C124.039 50.6356 123.949 50.8161 123.904 51.0192H125.619Z" fill="white"/>
<path d="M127.288 50.2068V50.6807C127.537 50.4551 127.717 50.3197 127.83 50.252C127.943 50.1843 128.056 50.1617 128.168 50.1617C128.281 50.1617 128.372 50.2068 128.484 50.2745C128.597 50.3422 128.62 50.4099 128.62 50.4325C128.62 50.4551 128.62 50.4776 128.597 50.5002C128.575 50.5228 128.552 50.5227 128.53 50.5227C128.507 50.5227 128.507 50.5227 128.484 50.5227C128.484 50.5227 128.462 50.5002 128.417 50.4776C128.372 50.4325 128.326 50.3874 128.281 50.3648C128.236 50.3422 128.214 50.3422 128.168 50.3422C128.078 50.3422 127.988 50.3648 127.875 50.4325C127.762 50.5002 127.559 50.6581 127.288 50.9064V51.9218H128.101C128.146 51.9218 128.168 51.9218 128.191 51.9443C128.214 51.9669 128.214 51.9895 128.214 52.012C128.214 52.0346 128.214 52.0572 128.191 52.0797C128.168 52.1023 128.146 52.1023 128.101 52.1023H126.657C126.612 52.1023 126.589 52.1023 126.566 52.0797C126.544 52.0572 126.544 52.0346 126.544 52.012C126.544 51.9895 126.544 51.9669 126.566 51.9443C126.589 51.9218 126.612 51.9218 126.657 51.9218H127.108V50.3874H126.769C126.724 50.3874 126.702 50.3874 126.679 50.3648C126.657 50.3422 126.657 50.3197 126.657 50.2971C126.657 50.2745 126.657 50.252 126.679 50.2294C126.702 50.2068 126.724 50.2068 126.769 50.2068H127.288Z" fill="white"/>
<path d="M130.718 52.1023V51.8315C130.448 52.0572 130.154 52.17 129.861 52.17C129.635 52.17 129.477 52.1249 129.342 52.012C129.206 51.8992 129.161 51.7638 129.161 51.6059C129.161 51.4254 129.252 51.2674 129.41 51.132C129.568 50.9966 129.816 50.9289 130.132 50.9289C130.222 50.9289 130.312 50.9289 130.402 50.9515C130.493 50.9741 130.605 50.9741 130.718 50.9966V50.7033C130.718 50.613 130.673 50.5228 130.583 50.4325C130.493 50.3648 130.357 50.3197 130.154 50.3197C130.019 50.3197 129.816 50.3648 129.545 50.4551C129.5 50.4776 129.477 50.4776 129.455 50.4776C129.432 50.4776 129.41 50.4776 129.387 50.4551C129.364 50.4325 129.364 50.4099 129.364 50.3874C129.364 50.3648 129.364 50.3422 129.387 50.3197C129.41 50.2971 129.5 50.2746 129.635 50.2294C129.861 50.1617 130.041 50.1392 130.154 50.1392C130.38 50.1392 130.56 50.2069 130.696 50.3197C130.831 50.4325 130.899 50.5679 130.899 50.7033V51.9218H131.147C131.192 51.9218 131.215 51.9218 131.237 51.9443C131.26 51.9669 131.26 51.9895 131.26 52.012C131.26 52.0346 131.26 52.0572 131.237 52.0797C131.215 52.1023 131.192 52.1023 131.147 52.1023H130.718ZM130.718 51.1997C130.628 51.1771 130.538 51.1546 130.448 51.1546C130.357 51.132 130.244 51.132 130.154 51.132C129.883 51.132 129.68 51.1997 129.522 51.3125C129.41 51.4028 129.342 51.4931 129.342 51.6284C129.342 51.7413 129.387 51.8315 129.477 51.8992C129.568 51.9669 129.68 52.012 129.861 52.012C130.019 52.012 130.177 51.9895 130.312 51.9218C130.448 51.8541 130.583 51.7638 130.741 51.6284V51.1997H130.718Z" fill="white"/>
<path d="M132.501 50.2068H133.494C133.539 50.2068 133.561 50.2068 133.584 50.2294C133.607 50.252 133.607 50.2745 133.607 50.2971C133.607 50.3197 133.607 50.3422 133.584 50.3648C133.561 50.3873 133.539 50.3873 133.494 50.3873H132.501V51.6058C132.501 51.7187 132.546 51.8089 132.636 51.8766C132.727 51.9443 132.839 51.9894 133.02 51.9894C133.133 51.9894 133.268 51.9669 133.426 51.9443C133.561 51.8992 133.674 51.8541 133.765 51.8089C133.787 51.7864 133.81 51.7864 133.832 51.7864C133.855 51.7864 133.877 51.7864 133.9 51.8089C133.923 51.8315 133.923 51.8541 133.923 51.8766C133.923 51.8992 133.923 51.9218 133.9 51.9443C133.855 51.9895 133.742 52.0346 133.561 52.1023C133.381 52.1474 133.2 52.1925 133.042 52.1925C132.817 52.1925 132.659 52.1474 132.524 52.0346C132.388 51.9443 132.343 51.8089 132.343 51.6284V50.4099H132.005C131.959 50.4099 131.937 50.4099 131.914 50.3873C131.892 50.3648 131.892 50.3422 131.892 50.3197C131.892 50.2971 131.892 50.2745 131.914 50.252C131.937 50.2294 131.959 50.2294 132.005 50.2294H132.343V49.6878C132.343 49.6427 132.343 49.6201 132.366 49.5976C132.388 49.575 132.411 49.575 132.433 49.575C132.456 49.575 132.478 49.575 132.501 49.5976C132.524 49.6201 132.524 49.6427 132.524 49.6878V50.2068H132.501Z" fill="white"/>
<path d="M135.683 50.2068V51.9218H136.405C136.45 51.9218 136.472 51.9218 136.495 51.9443C136.518 51.9669 136.518 51.9895 136.518 52.012C136.518 52.0346 136.518 52.0572 136.495 52.0797C136.472 52.1023 136.45 52.1023 136.405 52.1023H134.78C134.735 52.1023 134.712 52.1023 134.69 52.0797C134.667 52.0572 134.667 52.0346 134.667 52.012C134.667 51.9895 134.667 51.9669 134.69 51.9443C134.712 51.9218 134.735 51.9218 134.78 51.9218H135.502V50.3874H134.961C134.915 50.3874 134.893 50.3874 134.87 50.3648C134.848 50.3422 134.848 50.3197 134.848 50.2971C134.848 50.2745 134.848 50.252 134.87 50.2294C134.893 50.2068 134.915 50.2068 134.961 50.2068H135.683ZM135.683 49.2817V49.7555H135.412V49.2817H135.683Z" fill="white"/>
<path d="M139.316 51.1771C139.316 51.4479 139.225 51.6961 139.022 51.8992C138.819 52.1023 138.571 52.1926 138.3 52.1926C138.007 52.1926 137.781 52.1023 137.578 51.8992C137.375 51.6961 137.285 51.4705 137.285 51.1771C137.285 50.9064 137.375 50.6581 137.578 50.4551C137.781 50.252 138.029 50.1617 138.3 50.1617C138.593 50.1617 138.819 50.252 139.022 50.4551C139.203 50.6356 139.316 50.8838 139.316 51.1771ZM139.112 51.1771C139.112 50.9515 139.022 50.7484 138.864 50.5904C138.706 50.4325 138.503 50.3422 138.278 50.3422C138.052 50.3422 137.849 50.4325 137.691 50.5904C137.533 50.7484 137.443 50.9515 137.443 51.1771C137.443 51.4028 137.533 51.6059 137.691 51.7638C137.849 51.9218 138.052 52.012 138.278 52.012C138.503 52.012 138.706 51.9218 138.864 51.7638C139.045 51.5833 139.112 51.4028 139.112 51.1771Z" fill="white"/>
<path d="M140.376 50.2069V50.4776C140.511 50.3422 140.624 50.252 140.715 50.2069C140.827 50.1617 140.94 50.1392 141.076 50.1392C141.211 50.1392 141.346 50.1617 141.459 50.2294C141.549 50.2746 141.617 50.3422 141.685 50.4551C141.753 50.5453 141.775 50.6582 141.775 50.771V51.9218H141.933C141.978 51.9218 142.001 51.9218 142.023 51.9443C142.046 51.9669 142.046 51.9895 142.046 52.012C142.046 52.0346 142.046 52.0572 142.023 52.0797C142.001 52.1023 141.978 52.1023 141.933 52.1023H141.437C141.392 52.1023 141.369 52.1023 141.346 52.0797C141.324 52.0572 141.324 52.0346 141.324 52.012C141.324 51.9895 141.324 51.9669 141.346 51.9443C141.369 51.9218 141.392 51.9218 141.437 51.9218H141.595V50.7935C141.595 50.6582 141.549 50.5453 141.459 50.4551C141.369 50.3648 141.234 50.3197 141.076 50.3197C140.963 50.3197 140.85 50.3422 140.76 50.3874C140.669 50.4325 140.534 50.5679 140.376 50.7484V51.8992H140.579C140.624 51.8992 140.647 51.8992 140.669 51.9218C140.692 51.9443 140.692 51.9669 140.692 51.9895C140.692 52.012 140.692 52.0346 140.669 52.0572C140.647 52.0797 140.624 52.0797 140.579 52.0797H139.97C139.925 52.0797 139.902 52.0797 139.88 52.0572C139.857 52.0346 139.857 52.012 139.857 51.9895C139.857 51.9669 139.857 51.9443 139.88 51.9218C139.902 51.8992 139.925 51.8992 139.97 51.8992H140.173V50.3648H140.015C139.97 50.3648 139.947 50.3648 139.925 50.3422C139.902 50.3197 139.902 50.2971 139.902 50.2746C139.902 50.252 139.902 50.2294 139.925 50.2069C139.947 50.1843 139.97 50.1843 140.015 50.1843H140.376V50.2069Z" fill="white"/>
<path d="M145.634 51.9218V49.733H145.476C145.431 49.733 145.408 49.733 145.385 49.7104C145.363 49.6878 145.363 49.6653 145.363 49.6427C145.363 49.6202 145.363 49.5976 145.385 49.575C145.408 49.5525 145.431 49.5525 145.476 49.5525H146.469C146.627 49.5525 146.762 49.575 146.897 49.6427C147.033 49.7104 147.123 49.7781 147.191 49.8684C147.304 50.0038 147.394 50.1617 147.461 50.3197C147.507 50.4325 147.529 50.5679 147.529 50.7258V50.974C147.529 51.1546 147.484 51.3351 147.394 51.5156C147.304 51.6961 147.168 51.8541 146.988 51.9669C146.852 52.0572 146.672 52.1023 146.491 52.1023H145.498C145.453 52.1023 145.431 52.1023 145.408 52.0797C145.385 52.0572 145.385 52.0346 145.385 52.012C145.385 51.9895 145.385 51.9669 145.408 51.9443C145.431 51.9218 145.453 51.9218 145.498 51.9218H145.634ZM145.814 51.9218H146.491C146.649 51.9218 146.785 51.8766 146.92 51.7638C147.055 51.6736 147.146 51.5382 147.213 51.4028C147.281 51.2674 147.326 51.132 147.326 50.974V50.6356C147.326 50.5227 147.304 50.4099 147.281 50.3422C147.236 50.2068 147.146 50.094 147.055 49.9812C147.01 49.9135 146.92 49.8684 146.83 49.8007C146.739 49.733 146.627 49.7104 146.491 49.7104H145.814V51.9218Z" fill="white"/>
<path d="M149.583 52.1023V51.8315C149.312 52.0572 149.018 52.17 148.725 52.17C148.499 52.17 148.341 52.1249 148.206 52.012C148.071 51.8992 148.026 51.7638 148.026 51.6059C148.026 51.4254 148.116 51.2674 148.274 51.132C148.432 50.9966 148.68 50.9289 148.996 50.9289C149.086 50.9289 149.176 50.9289 149.267 50.9515C149.357 50.9741 149.47 50.9741 149.583 50.9966V50.7033C149.583 50.613 149.537 50.5228 149.447 50.4325C149.357 50.3648 149.222 50.3197 149.018 50.3197C148.883 50.3197 148.68 50.3648 148.409 50.4551C148.364 50.4776 148.341 50.4776 148.319 50.4776C148.296 50.4776 148.274 50.4776 148.251 50.4551C148.229 50.4325 148.229 50.4099 148.229 50.3874C148.229 50.3648 148.229 50.3422 148.251 50.3197C148.274 50.2971 148.364 50.2746 148.499 50.2294C148.725 50.1617 148.906 50.1392 149.018 50.1392C149.244 50.1392 149.425 50.2069 149.56 50.3197C149.695 50.4325 149.763 50.5679 149.763 50.7033V51.9218H150.011C150.056 51.9218 150.079 51.9218 150.102 51.9443C150.124 51.9669 150.124 51.9895 150.124 52.012C150.124 52.0346 150.124 52.0572 150.102 52.0797C150.079 52.1023 150.056 52.1023 150.011 52.1023H149.583ZM149.583 51.1997C149.492 51.1771 149.402 51.1546 149.312 51.1546C149.222 51.132 149.109 51.132 149.018 51.132C148.748 51.132 148.545 51.1997 148.387 51.3125C148.274 51.4028 148.206 51.4931 148.206 51.6284C148.206 51.7413 148.251 51.8315 148.342 51.8992C148.432 51.9669 148.545 52.012 148.725 52.012C148.883 52.012 149.041 51.9895 149.176 51.9218C149.312 51.8541 149.447 51.7638 149.605 51.6284V51.1997H149.583Z" fill="white"/>
<path d="M151.049 50.2068V50.5453C151.162 50.4099 151.275 50.3197 151.41 50.252C151.546 50.1843 151.681 50.1617 151.862 50.1617C152.042 50.1617 152.2 50.2068 152.358 50.2971C152.516 50.3874 152.629 50.5002 152.719 50.6581C152.809 50.8161 152.854 50.974 152.854 51.132C152.854 51.4028 152.764 51.6284 152.561 51.8089C152.381 51.9895 152.132 52.0797 151.862 52.0797C151.523 52.0797 151.275 51.9443 151.072 51.6736V52.7792H151.523C151.568 52.7792 151.591 52.7792 151.613 52.8018C151.636 52.8244 151.636 52.8469 151.636 52.8695C151.636 52.8921 151.636 52.9146 151.613 52.9372C151.591 52.9598 151.568 52.9598 151.523 52.9598H150.643C150.598 52.9598 150.575 52.9598 150.553 52.9372C150.53 52.9146 150.53 52.8921 150.53 52.8695C150.53 52.8469 150.53 52.8244 150.553 52.8018C150.575 52.7792 150.598 52.7792 150.643 52.7792H150.891V50.4099H150.643C150.598 50.4099 150.575 50.4099 150.553 50.3874C150.53 50.3648 150.53 50.3422 150.53 50.3197C150.53 50.2971 150.53 50.2745 150.553 50.252C150.575 50.2294 150.598 50.2294 150.643 50.2294H151.049V50.2068ZM152.651 51.1094C152.651 50.9064 152.584 50.7258 152.426 50.5679C152.268 50.4099 152.087 50.3422 151.862 50.3422C151.636 50.3422 151.455 50.4099 151.297 50.5679C151.14 50.7258 151.072 50.9064 151.072 51.1094C151.072 51.3125 151.14 51.493 151.297 51.651C151.455 51.8089 151.636 51.8766 151.862 51.8766C152.087 51.8766 152.268 51.8089 152.426 51.651C152.561 51.493 152.651 51.3125 152.651 51.1094Z" fill="white"/>
<path d="M153.734 50.2068V50.5453C153.847 50.4099 153.96 50.3197 154.096 50.252C154.231 50.1843 154.366 50.1617 154.547 50.1617C154.727 50.1617 154.885 50.2068 155.043 50.2971C155.201 50.3874 155.314 50.5002 155.404 50.6581C155.495 50.8161 155.54 50.974 155.54 51.132C155.54 51.4028 155.449 51.6284 155.246 51.8089C155.066 51.9895 154.818 52.0797 154.547 52.0797C154.208 52.0797 153.96 51.9443 153.757 51.6736V52.7792H154.208C154.253 52.7792 154.276 52.7792 154.299 52.8018C154.321 52.8244 154.321 52.8469 154.321 52.8695C154.321 52.8921 154.321 52.9146 154.299 52.9372C154.276 52.9598 154.253 52.9598 154.208 52.9598H153.328C153.283 52.9598 153.261 52.9598 153.238 52.9372C153.215 52.9146 153.215 52.8921 153.215 52.8695C153.215 52.8469 153.215 52.8244 153.238 52.8018C153.261 52.7792 153.283 52.7792 153.328 52.7792H153.577V50.4099H153.328C153.283 50.4099 153.261 50.4099 153.238 50.3874C153.215 50.3648 153.215 50.3422 153.215 50.3197C153.215 50.2971 153.215 50.2745 153.238 50.252C153.261 50.2294 153.283 50.2294 153.328 50.2294H153.734V50.2068ZM155.337 51.1094C155.337 50.9064 155.269 50.7258 155.111 50.5679C154.953 50.4099 154.772 50.3422 154.547 50.3422C154.321 50.3422 154.141 50.4099 153.983 50.5679C153.825 50.7258 153.757 50.9064 153.757 51.1094C153.757 51.3125 153.825 51.493 153.983 51.651C154.141 51.8089 154.321 51.8766 154.547 51.8766C154.772 51.8766 154.953 51.8089 155.111 51.651C155.269 51.493 155.337 51.3125 155.337 51.1094Z" fill="white"/>
<path d="M157.728 50.3422C157.728 50.2971 157.728 50.2745 157.751 50.252C157.774 50.2294 157.796 50.2294 157.819 50.2294C157.841 50.2294 157.864 50.2294 157.886 50.252C157.909 50.2745 157.909 50.2971 157.909 50.3422V50.6582C157.909 50.7033 157.909 50.7258 157.886 50.7484C157.864 50.771 157.841 50.771 157.819 50.771C157.796 50.771 157.774 50.771 157.751 50.7484C157.728 50.7258 157.728 50.7033 157.728 50.6807C157.728 50.5905 157.683 50.5228 157.593 50.4551C157.48 50.3648 157.322 50.3422 157.119 50.3422C156.916 50.3422 156.758 50.3874 156.645 50.4776C156.555 50.5453 156.51 50.613 156.51 50.6807C156.51 50.771 156.555 50.8387 156.668 50.9064C156.736 50.9515 156.871 50.9741 157.074 50.9966C157.322 51.0192 157.503 51.0643 157.616 51.0869C157.751 51.132 157.864 51.1997 157.932 51.29C157.999 51.3802 158.044 51.4705 158.044 51.5833C158.044 51.7413 157.977 51.8767 157.819 52.012C157.661 52.1249 157.458 52.1926 157.164 52.1926C156.871 52.1926 156.645 52.1249 156.442 51.9669C156.442 52.012 156.442 52.0572 156.442 52.0572C156.442 52.0797 156.42 52.0797 156.42 52.1023C156.397 52.1023 156.397 52.1249 156.375 52.1249C156.352 52.1249 156.329 52.1249 156.307 52.1023C156.284 52.0797 156.284 52.0572 156.284 52.012V51.6284C156.284 51.5833 156.284 51.5607 156.307 51.5382C156.329 51.5156 156.352 51.5156 156.375 51.5156C156.397 51.5156 156.42 51.5156 156.442 51.5382C156.465 51.5607 156.465 51.5833 156.465 51.6059C156.465 51.6736 156.487 51.7187 156.51 51.7638C156.555 51.8315 156.645 51.8992 156.758 51.9443C156.871 51.9895 157.006 52.012 157.164 52.012C157.413 52.012 157.593 51.9669 157.706 51.8767C157.819 51.7864 157.886 51.6961 157.886 51.5833C157.886 51.4705 157.819 51.3802 157.706 51.3125C157.593 51.2448 157.413 51.1997 157.187 51.1771C156.961 51.1546 156.803 51.132 156.69 51.0869C156.6 51.0418 156.51 50.9966 156.465 50.9064C156.42 50.8387 156.375 50.7484 156.375 50.6582C156.375 50.5002 156.442 50.3648 156.6 50.2746C156.758 50.1843 156.939 50.1392 157.164 50.1392C157.367 50.1392 157.571 50.2069 157.728 50.3422Z" fill="white"/>
<path d="M64.1971 35.1561L72.0496 34.6597C72.2302 35.9459 72.5686 36.9162 73.0876 37.5705C73.9451 38.6536 75.1636 39.1952 76.7431 39.1952C77.9165 39.1952 78.8191 38.9244 79.4735 38.3603C80.0602 37.8864 80.4212 37.1869 80.4212 36.4423C80.3986 35.7202 80.0827 35.0433 79.5186 34.592C78.9094 34.0504 77.5103 33.5314 75.2764 33.035C71.6435 32.2227 69.0711 31.1395 67.5141 29.7857C65.9797 28.4995 65.1222 26.604 65.1674 24.6183C65.1674 23.2193 65.5961 21.8654 66.3633 20.7146C67.1531 19.4961 68.349 18.5258 69.9511 17.8263C71.5532 17.1268 73.742 16.7883 76.5401 16.7657C79.9473 16.7657 82.5649 17.3975 84.3475 18.6612C86.1301 19.9248 87.2132 21.9556 87.5517 24.7311L79.7668 25.1824C79.5637 23.9865 79.135 23.1064 78.4581 22.5649C77.8037 22.0233 76.8785 21.7526 75.7052 21.7526C74.7349 21.7526 74.0128 21.9556 73.5389 22.3618C73.0876 22.7228 72.8168 23.2644 72.8168 23.8511C72.8394 24.3024 73.0425 24.7311 73.4261 25.0019C73.8097 25.3629 74.7349 25.6788 76.2016 25.9948C79.812 26.762 82.4069 27.5517 83.9639 28.3641C85.5209 29.1764 86.6717 30.1467 87.3712 31.3426C88.0933 32.5386 88.4543 33.915 88.4317 35.314C88.4317 37.0064 87.9353 38.6536 87.0102 40.0527C86.0399 41.5194 84.6634 42.6702 83.0387 43.3471C81.3464 44.0918 79.1801 44.4754 76.6077 44.4754C72.0496 44.4754 68.9131 43.5954 67.1531 41.8579C65.4156 40.0978 64.4227 37.8639 64.1971 35.1561Z" fill="url(#paint2_linear_26:50)"/>
<path d="M112.26 36.194H97.3675C97.5028 37.39 97.8187 38.27 98.3377 38.8567C99.0372 39.6916 100.075 40.1429 101.158 40.1203C101.88 40.1203 102.602 39.9398 103.234 39.5788C103.731 39.2629 104.182 38.8341 104.521 38.3603L111.832 39.0372C110.703 40.9778 109.372 42.3768 107.77 43.2343C106.19 44.0692 103.911 44.4979 100.955 44.4979C98.3829 44.4979 96.3746 44.1369 94.9079 43.4148C93.3735 42.6476 92.1098 41.4291 91.2524 39.9624C90.2821 38.3828 89.8082 36.5325 89.8082 34.4114C89.8082 31.3877 90.7785 28.9282 92.7191 27.0553C94.6597 25.1824 97.3449 24.2572 100.752 24.2572C103.528 24.2572 105.716 24.686 107.319 25.5209C108.898 26.3332 110.162 27.5968 110.974 29.1764C111.809 30.7785 112.238 32.8319 112.238 35.4043V36.194H112.26ZM104.701 32.6288C104.543 31.1847 104.159 30.1692 103.55 29.5374C102.061 28.2061 99.7593 28.3189 98.428 29.8082C98.3603 29.8759 98.3152 29.9436 98.2475 30.0113C97.7962 30.598 97.5028 31.4554 97.39 32.6288H104.701Z" fill="url(#paint3_linear_26:50)"/>
<path d="M145.656 18.2324H138.074V44.9718H145.656V18.2324Z" fill="url(#paint4_linear_26:50)"/>
<path d="M121.941 32.6063H114.63C114.742 31.4555 115.036 30.5754 115.487 29.9887C116.728 28.4092 119.007 28.1159 120.587 29.3569C120.654 29.4021 120.722 29.4698 120.79 29.5149C121.399 30.1467 121.783 31.1621 121.941 32.6063Z" fill="url(#paint5_linear_26:50)"/>
<path d="M138.052 34.1858V34.4791L132.817 44.9943L123.859 44.9041L127.198 38.8341L121.737 38.3377C121.376 38.8116 120.948 39.2403 120.451 39.5562C119.819 39.9172 119.097 40.0978 118.375 40.0978C117.292 40.1429 116.254 39.669 115.555 38.8341C115.036 38.2474 114.72 37.3674 114.584 36.1715H128.665L129.613 34.4565L124.603 26.1075H133.742L138.052 34.1858Z" fill="url(#paint6_linear_26:50)"/>
<path d="M138.142 34.3212L138.074 34.4791V34.1858L138.142 34.3212Z" fill="url(#paint7_linear_26:50)"/>
<path d="M164.408 43.8887L163.55 44.3625C163.844 44.2271 164.137 44.1143 164.43 43.9564L164.408 43.8887Z" fill="url(#paint8_linear_26:50)"/>
<path d="M174.133 57.5404L167.77 46.2805L167.048 46.6867L165.288 43.5276C167.634 42.1963 169.304 40.4588 170.252 38.3377C171.47 35.6299 171.47 32.7642 170.275 29.7631C169.191 27.1004 167.499 25.1598 165.152 23.9864C162.241 22.5197 158.834 22.5874 154.93 24.1444C151.523 25.5209 149.176 27.5743 147.958 30.3272C146.717 33.0575 146.717 35.9233 147.913 38.9018C149.199 42.106 151.433 44.2046 154.592 45.22C157.164 46.0323 160.03 45.8067 163.167 44.543L163.573 44.3625L164.408 43.8887L164.453 43.9564C164.182 44.0918 163.889 44.2271 163.573 44.3625L165.401 47.6344L164.701 48.018L171.064 59.2779C171.448 59.9549 172.305 60.2031 172.982 59.8195L173.614 59.4584C174.269 59.0748 174.517 58.2174 174.133 57.5404ZM163.325 37.1643C162.693 39.1275 160.572 40.188 158.631 39.5562C158.428 39.4885 158.202 39.3983 158.022 39.2854C156.984 38.7439 156.104 37.5931 155.404 35.8556C154.727 34.1406 154.569 32.7191 154.93 31.5908C155.269 30.5077 156.059 29.6502 157.119 29.2441C158.135 28.8153 159.263 28.9056 160.211 29.4471C161.249 29.9887 162.106 31.1169 162.783 32.8093C163.505 34.5919 163.686 36.0587 163.325 37.1643Z" fill="url(#paint9_linear_26:50)"/>
</g>
<defs>
<linearGradient id="paint0_linear_26:50" x1="0" y1="29.5803" x2="59.1606" y2="29.5803" gradientUnits="userSpaceOnUse">
<stop stop-color="#82368C"/>
<stop offset="1" stop-color="#EA571C"/>
</linearGradient>
<linearGradient id="paint1_linear_26:50" x1="78.4445" y1="50.9978" x2="160.346" y2="50.9978" gradientUnits="userSpaceOnUse">
<stop stop-color="#82368C"/>
<stop offset="1" stop-color="#EA571C"/>
</linearGradient>
<linearGradient id="paint2_linear_26:50" x1="54.3198" y1="27.0092" x2="170.08" y2="46.0562" gradientUnits="userSpaceOnUse">
<stop stop-color="#82368C"/>
<stop offset="1" stop-color="#EA571C"/>
</linearGradient>
<linearGradient id="paint3_linear_26:50" x1="54.3727" y1="26.6855" x2="170.135" y2="45.7302" gradientUnits="userSpaceOnUse">
<stop stop-color="#82368C"/>
<stop offset="1" stop-color="#EA571C"/>
</linearGradient>
<linearGradient id="paint4_linear_26:50" x1="55.8888" y1="17.4698" x2="171.651" y2="36.5145" gradientUnits="userSpaceOnUse">
<stop stop-color="#82368C"/>
<stop offset="1" stop-color="#EA571C"/>
</linearGradient>
<linearGradient id="paint5_linear_26:50" x1="55.385" y1="20.5236" x2="171.147" y2="39.5706" gradientUnits="userSpaceOnUse">
<stop stop-color="#82368C"/>
<stop offset="1" stop-color="#EA571C"/>
</linearGradient>
<linearGradient id="paint6_linear_26:50" x1="54.921" y1="23.346" x2="170.683" y2="42.3908" gradientUnits="userSpaceOnUse">
<stop stop-color="#82368C"/>
<stop offset="1" stop-color="#EA571C"/>
</linearGradient>
<linearGradient id="paint7_linear_26:50" x1="55.3598" y1="20.7252" x2="171.111" y2="39.7684" gradientUnits="userSpaceOnUse">
<stop stop-color="#82368C"/>
<stop offset="1" stop-color="#EA571C"/>
</linearGradient>
<linearGradient id="paint8_linear_26:50" x1="54.4688" y1="26.0981" x2="170.232" y2="45.1431" gradientUnits="userSpaceOnUse">
<stop stop-color="#82368C"/>
<stop offset="1" stop-color="#EA571C"/>
</linearGradient>
<linearGradient id="paint9_linear_26:50" x1="54.9694" y1="23.0602" x2="170.732" y2="42.105" gradientUnits="userSpaceOnUse">
<stop stop-color="#82368C"/>
<stop offset="1" stop-color="#EA571C"/>
</linearGradient>
<clipPath id="clip0_26:50">
<rect width="174.314" height="60" fill="white"/>
</clipPath>
</defs>
</svg>
