<svg width="55" height="60" viewBox="0 0 55 60" fill="none" xmlns="http://www.w3.org/2000/svg">
<path d="M50.6 18.5C52.6 18.5 54.3 16.8 54.3 14.8V3.7C54.3 1.7 52.6 0 50.6 0H3.7C1.7 0 0 1.7 0 3.7V14.8C0 16.8 1.7 18.5 3.7 18.5H9.1V20.7H3.7C1.7 20.7 0 22.4 0 24.4V35.5C0 37.5 1.7 39.2 3.7 39.2H9.1V41.4H3.7C1.7 41.4 0 43.1 0 45.1V56.2C0 58.2 1.7 59.9 3.7 59.9H50.6C52.6 59.9 54.3 58.2 54.3 56.2V45.2C54.3 43.2 52.6 41.5 50.6 41.5H45.2V39.3H50.6C52.6 39.3 54.3 37.6 54.3 35.6V24.4C54.3 22.4 52.6 20.7 50.6 20.7H45.2V18.5H50.6ZM52.4 45.2V56.3C52.4 57.3 51.6 58 50.7 58H3.7C2.7 58 2 57.2 2 56.3V45.2C2 44.2 2.8 43.5 3.7 43.5H50.6C51.6 43.4 52.4 44.2 52.4 45.2ZM52.4 24.4V35.5C52.4 36.5 51.6 37.2 50.7 37.2H3.7C2.7 37.2 2 36.4 2 35.5V24.4C2 23.4 2.8 22.7 3.7 22.7H50.6C51.6 22.7 52.4 23.5 52.4 24.4ZM1.9 14.8V3.7C1.9 2.7 2.7 2 3.6 2H50.5C51.5 2 52.2 2.8 52.2 3.7V14.8C52.2 15.8 51.4 16.5 50.5 16.5H3.7C2.7 16.6 1.9 15.8 1.9 14.8Z" fill="url(#paint0_linear_18:530)"/>
<defs>
<linearGradient id="paint0_linear_18:530" x1="0" y1="0" x2="60.1927" y2="53.2374" gradientUnits="userSpaceOnUse">
<stop stop-color="#E65528"/>
<stop offset="1" stop-color="#6F2874"/>
</linearGradient>
</defs>
</svg>
