<svg width="36" height="36" viewBox="0 0 36 36" fill="none" xmlns="http://www.w3.org/2000/svg">
<circle cx="18" cy="18" r="17.5" stroke="#5B5B5B"/>
<g clip-path="url(#clip0_18:359)">
<path d="M25.094 15.7436C24.547 15.7436 24 16.0171 23.5897 16.2906C22.0855 15.3333 20.1709 14.7863 17.9829 14.6496L19.2137 10.9573L22.359 11.641C22.359 12.5983 23.1795 13.4188 24.1368 13.4188C25.094 13.4188 25.7778 12.735 25.7778 11.7778C25.7778 10.8205 25.094 10 24.1368 10C23.453 10 22.7692 10.4103 22.4957 11.094L19.0769 10.2735C18.9402 10.2735 18.8034 10.2735 18.6667 10.4103L17.2991 14.5128C14.9744 14.5128 12.9231 15.1966 11.4188 16.1538C11.1453 15.8803 10.735 15.7436 10.0513 15.7436C8.95726 15.7436 8 16.7009 8 17.7949C8 18.6154 8.41026 19.2991 9.09402 19.5726C9.09402 19.8462 9.09402 19.9829 9.09402 20.2564C9.09402 23.4017 12.9231 25.8632 17.7094 25.8632C22.4957 25.8632 26.3248 23.265 26.3248 20.2564C26.3248 19.9829 26.3248 19.8462 26.3248 19.5726C26.735 19.2991 27.1453 18.6154 27.1453 17.7949C27.1453 16.7009 26.188 15.7436 25.094 15.7436ZM13.4701 19.2991C13.4701 18.6154 14.0171 18.0684 14.7009 18.0684C15.3846 18.0684 15.9316 18.6154 15.9316 19.2991C15.9316 19.9829 15.3846 20.5299 14.7009 20.5299C14.0171 20.5299 13.4701 19.9829 13.4701 19.2991ZM20.5812 22.9915C20.0342 23.6752 18.9402 23.9487 17.5726 23.9487C16.2051 23.9487 15.1111 23.6752 14.5641 22.9915C14.4274 22.8547 14.4274 22.7179 14.5641 22.5812C14.7009 22.4444 14.8376 22.4444 14.9744 22.5812C15.5214 23.1282 16.3419 23.4017 17.5726 23.4017C18.8034 23.4017 19.6239 23.1282 20.1709 22.5812C20.3077 22.4444 20.4444 22.4444 20.5812 22.5812C20.7179 22.7179 20.7179 22.8547 20.5812 22.9915ZM20.4444 20.5299C19.7607 20.5299 19.2137 19.9829 19.2137 19.2991C19.2137 18.6154 19.7607 18.0684 20.4444 18.0684C21.1282 18.0684 21.6752 18.6154 21.6752 19.2991C21.6752 19.9829 21.1282 20.5299 20.4444 20.5299Z" fill="#5B5B5B"/>
</g>
<defs>
<clipPath id="clip0_18:359">
<rect width="19.1453" height="16" fill="white" transform="translate(8 10)"/>
</clipPath>
</defs>
</svg>
