<svg width="36" height="36" viewBox="0 0 36 36" fill="none" xmlns="http://www.w3.org/2000/svg">
<circle cx="18" cy="18" r="17.5" stroke="#5B5B5B"/>
<g clip-path="url(#clip0_18:355)">
<path d="M26.607 13.9651C26.3712 13.179 25.821 12.5502 25.0349 12.393C23.6201 12 17.9607 12 17.9607 12C17.9607 12 12.3799 12 10.9651 12.393C10.179 12.6288 9.55022 13.2576 9.39301 13.9651C9 15.3799 9 18.2882 9 18.2882C9 18.2882 9 21.1965 9.39301 22.6114C9.62882 23.3974 10.179 24.0262 10.9651 24.1834C12.3799 24.5764 17.9607 24.5764 17.9607 24.5764C17.9607 24.5764 23.6201 24.5764 24.9563 24.1834C25.7424 23.9476 26.3712 23.3974 26.5284 22.6114C26.9214 21.1965 26.9214 18.2882 26.9214 18.2882C26.9214 18.2882 27 15.3799 26.607 13.9651ZM16.1528 20.9607V15.6157L20.869 18.2882L16.1528 20.9607Z" fill="#5B5B5B"/>
</g>
<defs>
<clipPath id="clip0_18:355">
<rect width="18" height="12.5764" fill="white" transform="translate(9 12)"/>
</clipPath>
</defs>
</svg>
